<mxfile host="app.diagrams.net" agent="Mozilla/5.0 (Windows NT 10.0; Win64; x64) AppleWebKit/537.36 (KHTML, like Gecko) Chrome/131.0.0.0 Safari/537.36 Edg/131.0.0.0" version="25.0.1">
  <diagram name="Page-1" id="a69R2cGplu_H9Rw8NK7p">
    <mxGraphModel dx="4323" dy="2983" grid="1" gridSize="10" guides="1" tooltips="1" connect="1" arrows="1" fold="1" page="1" pageScale="1" pageWidth="850" pageHeight="1100" math="0" shadow="0">
      <root>
        <mxCell id="0" />
        <mxCell id="1" parent="0" />
        <mxCell id="Y2Szfp4RK3KfRqV7q5DK-1" value="" style="edgeStyle=orthogonalEdgeStyle;rounded=0;orthogonalLoop=1;jettySize=auto;html=1;" edge="1" parent="1" source="Y2Szfp4RK3KfRqV7q5DK-2" target="Y2Szfp4RK3KfRqV7q5DK-4">
          <mxGeometry relative="1" as="geometry" />
        </mxCell>
        <mxCell id="Y2Szfp4RK3KfRqV7q5DK-2" value="Start stuck User" style="shape=process;whiteSpace=wrap;html=1;backgroundOutline=1;" vertex="1" parent="1">
          <mxGeometry x="-500" y="-1045" width="120" height="50" as="geometry" />
        </mxCell>
        <mxCell id="Y2Szfp4RK3KfRqV7q5DK-3" value="" style="edgeStyle=orthogonalEdgeStyle;rounded=0;orthogonalLoop=1;jettySize=auto;html=1;" edge="1" parent="1" source="Y2Szfp4RK3KfRqV7q5DK-4" target="Y2Szfp4RK3KfRqV7q5DK-5">
          <mxGeometry relative="1" as="geometry" />
        </mxCell>
        <mxCell id="Y2Szfp4RK3KfRqV7q5DK-4" value="กำหนดค่า Name" style="rounded=0;whiteSpace=wrap;html=1;" vertex="1" parent="1">
          <mxGeometry x="-500" y="-955" width="120" height="40" as="geometry" />
        </mxCell>
        <mxCell id="Y2Szfp4RK3KfRqV7q5DK-43" value="" style="edgeStyle=orthogonalEdgeStyle;rounded=0;orthogonalLoop=1;jettySize=auto;html=1;" edge="1" parent="1" source="Y2Szfp4RK3KfRqV7q5DK-5" target="Y2Szfp4RK3KfRqV7q5DK-42">
          <mxGeometry relative="1" as="geometry" />
        </mxCell>
        <mxCell id="Y2Szfp4RK3KfRqV7q5DK-5" value="กำหนดค่า Salary" style="rounded=0;whiteSpace=wrap;html=1;" vertex="1" parent="1">
          <mxGeometry x="-500" y="-875" width="120" height="40" as="geometry" />
        </mxCell>
        <mxCell id="Y2Szfp4RK3KfRqV7q5DK-7" value="End stuck User" style="shape=process;whiteSpace=wrap;html=1;backgroundOutline=1;" vertex="1" parent="1">
          <mxGeometry x="-500" y="-712.5" width="120" height="50" as="geometry" />
        </mxCell>
        <mxCell id="Y2Szfp4RK3KfRqV7q5DK-50" value="" style="edgeStyle=orthogonalEdgeStyle;rounded=0;orthogonalLoop=1;jettySize=auto;html=1;" edge="1" parent="1" source="Y2Szfp4RK3KfRqV7q5DK-9">
          <mxGeometry relative="1" as="geometry">
            <mxPoint x="-655" y="-1000" as="targetPoint" />
          </mxGeometry>
        </mxCell>
        <mxCell id="Y2Szfp4RK3KfRqV7q5DK-9" value="&lt;font data-font-src=&quot;https://fonts.googleapis.com/css?family=Sarabun&quot; face=&quot;Sarabun&quot;&gt;Start&lt;/font&gt;" style="ellipse;whiteSpace=wrap;html=1;" vertex="1" parent="1">
          <mxGeometry x="-720.0000000000001" y="-1060" width="130" height="30" as="geometry" />
        </mxCell>
        <mxCell id="Y2Szfp4RK3KfRqV7q5DK-62" value="" style="edgeStyle=orthogonalEdgeStyle;rounded=0;orthogonalLoop=1;jettySize=auto;html=1;" edge="1" parent="1" source="Y2Szfp4RK3KfRqV7q5DK-11" target="Y2Szfp4RK3KfRqV7q5DK-19">
          <mxGeometry relative="1" as="geometry" />
        </mxCell>
        <mxCell id="Y2Szfp4RK3KfRqV7q5DK-11" value="stuck User" style="shape=process;whiteSpace=wrap;html=1;backgroundOutline=1;" vertex="1" parent="1">
          <mxGeometry x="-715" y="-722.5" width="120" height="50" as="geometry" />
        </mxCell>
        <mxCell id="Y2Szfp4RK3KfRqV7q5DK-65" value="" style="edgeStyle=orthogonalEdgeStyle;rounded=0;orthogonalLoop=1;jettySize=auto;html=1;" edge="1" parent="1" source="Y2Szfp4RK3KfRqV7q5DK-13" target="Y2Szfp4RK3KfRqV7q5DK-64">
          <mxGeometry relative="1" as="geometry" />
        </mxCell>
        <mxCell id="Y2Szfp4RK3KfRqV7q5DK-13" value="คำนวนหาเฉลี่ย&lt;br&gt;&lt;div&gt;&lt;span style=&quot;background-color: initial;&quot;&gt;Average =&amp;nbsp;&lt;/span&gt;รอบ /&amp;nbsp;Salary&lt;/div&gt;" style="rounded=0;whiteSpace=wrap;html=1;" vertex="1" parent="1">
          <mxGeometry x="-720" y="-255" width="130" height="50" as="geometry" />
        </mxCell>
        <mxCell id="Y2Szfp4RK3KfRqV7q5DK-14" value="" style="edgeStyle=orthogonalEdgeStyle;rounded=0;orthogonalLoop=1;jettySize=auto;html=1;" edge="1" parent="1" source="Y2Szfp4RK3KfRqV7q5DK-15" target="Y2Szfp4RK3KfRqV7q5DK-17">
          <mxGeometry relative="1" as="geometry" />
        </mxCell>
        <mxCell id="Y2Szfp4RK3KfRqV7q5DK-15" value="&amp;nbsp;stuck User รับค่า name" style="shape=parallelogram;perimeter=parallelogramPerimeter;whiteSpace=wrap;html=1;fixedSize=1;" vertex="1" parent="1">
          <mxGeometry x="-772.5" y="-597.5" width="235" height="40" as="geometry" />
        </mxCell>
        <mxCell id="Y2Szfp4RK3KfRqV7q5DK-16" value="" style="edgeStyle=orthogonalEdgeStyle;rounded=0;orthogonalLoop=1;jettySize=auto;html=1;" edge="1" parent="1" source="Y2Szfp4RK3KfRqV7q5DK-17">
          <mxGeometry relative="1" as="geometry">
            <mxPoint x="-655" y="-417.5" as="targetPoint" />
          </mxGeometry>
        </mxCell>
        <mxCell id="Y2Szfp4RK3KfRqV7q5DK-17" value="&amp;nbsp;stuck User รับค่า Salary" style="shape=parallelogram;perimeter=parallelogramPerimeter;whiteSpace=wrap;html=1;fixedSize=1;" vertex="1" parent="1">
          <mxGeometry x="-772.5" y="-507.5" width="235" height="40" as="geometry" />
        </mxCell>
        <mxCell id="Y2Szfp4RK3KfRqV7q5DK-18" value="" style="edgeStyle=orthogonalEdgeStyle;rounded=0;orthogonalLoop=1;jettySize=auto;html=1;" edge="1" parent="1" source="Y2Szfp4RK3KfRqV7q5DK-19" target="Y2Szfp4RK3KfRqV7q5DK-15">
          <mxGeometry relative="1" as="geometry" />
        </mxCell>
        <mxCell id="Y2Szfp4RK3KfRqV7q5DK-19" value="" style="ellipse;whiteSpace=wrap;html=1;aspect=fixed;" vertex="1" parent="1">
          <mxGeometry x="-665" y="-647.5" width="20" height="20" as="geometry" />
        </mxCell>
        <mxCell id="Y2Szfp4RK3KfRqV7q5DK-66" style="edgeStyle=orthogonalEdgeStyle;rounded=0;orthogonalLoop=1;jettySize=auto;html=1;entryX=0;entryY=0.5;entryDx=0;entryDy=0;" edge="1" parent="1" source="Y2Szfp4RK3KfRqV7q5DK-22" target="Y2Szfp4RK3KfRqV7q5DK-19">
          <mxGeometry relative="1" as="geometry">
            <Array as="points">
              <mxPoint x="-810" y="-60" />
              <mxPoint x="-810" y="-637" />
            </Array>
          </mxGeometry>
        </mxCell>
        <mxCell id="Y2Szfp4RK3KfRqV7q5DK-69" value="" style="edgeStyle=orthogonalEdgeStyle;rounded=0;orthogonalLoop=1;jettySize=auto;html=1;" edge="1" parent="1" source="Y2Szfp4RK3KfRqV7q5DK-22">
          <mxGeometry relative="1" as="geometry">
            <mxPoint x="-655" y="15" as="targetPoint" />
          </mxGeometry>
        </mxCell>
        <mxCell id="Y2Szfp4RK3KfRqV7q5DK-22" value="ต้องการรับเพิ่มหรือไม่" style="rhombus;whiteSpace=wrap;html=1;" vertex="1" parent="1">
          <mxGeometry x="-711" y="-95" width="112" height="70" as="geometry" />
        </mxCell>
        <mxCell id="Y2Szfp4RK3KfRqV7q5DK-23" value="" style="edgeStyle=orthogonalEdgeStyle;rounded=0;orthogonalLoop=1;jettySize=auto;html=1;" edge="1" parent="1" source="Y2Szfp4RK3KfRqV7q5DK-24" target="Y2Szfp4RK3KfRqV7q5DK-26">
          <mxGeometry relative="1" as="geometry" />
        </mxCell>
        <mxCell id="Y2Szfp4RK3KfRqV7q5DK-24" value="Start decimal" style="shape=process;whiteSpace=wrap;html=1;backgroundOutline=1;" vertex="1" parent="1">
          <mxGeometry x="-320" y="-1045" width="120" height="50" as="geometry" />
        </mxCell>
        <mxCell id="Y2Szfp4RK3KfRqV7q5DK-25" value="" style="edgeStyle=orthogonalEdgeStyle;rounded=0;orthogonalLoop=1;jettySize=auto;html=1;" edge="1" parent="1" source="Y2Szfp4RK3KfRqV7q5DK-26" target="Y2Szfp4RK3KfRqV7q5DK-27">
          <mxGeometry relative="1" as="geometry" />
        </mxCell>
        <mxCell id="Y2Szfp4RK3KfRqV7q5DK-26" value="แปลงเลขเป็นแบบ&amp;nbsp;decimal" style="rounded=0;whiteSpace=wrap;html=1;" vertex="1" parent="1">
          <mxGeometry x="-325" y="-960" width="130" height="50" as="geometry" />
        </mxCell>
        <mxCell id="Y2Szfp4RK3KfRqV7q5DK-27" value="&amp;nbsp;End decimal" style="shape=process;whiteSpace=wrap;html=1;backgroundOutline=1;" vertex="1" parent="1">
          <mxGeometry x="-320" y="-865" width="120" height="50" as="geometry" />
        </mxCell>
        <mxCell id="Y2Szfp4RK3KfRqV7q5DK-46" value="" style="edgeStyle=orthogonalEdgeStyle;rounded=0;orthogonalLoop=1;jettySize=auto;html=1;" edge="1" parent="1" source="Y2Szfp4RK3KfRqV7q5DK-42" target="Y2Szfp4RK3KfRqV7q5DK-7">
          <mxGeometry relative="1" as="geometry" />
        </mxCell>
        <mxCell id="Y2Szfp4RK3KfRqV7q5DK-42" value="กำหนดค่า Duration&amp;nbsp;" style="rounded=0;whiteSpace=wrap;html=1;" vertex="1" parent="1">
          <mxGeometry x="-500" y="-792.5" width="120" height="40" as="geometry" />
        </mxCell>
        <mxCell id="Y2Szfp4RK3KfRqV7q5DK-53" value="" style="edgeStyle=orthogonalEdgeStyle;rounded=0;orthogonalLoop=1;jettySize=auto;html=1;" edge="1" parent="1" source="Y2Szfp4RK3KfRqV7q5DK-47" target="Y2Szfp4RK3KfRqV7q5DK-52">
          <mxGeometry relative="1" as="geometry" />
        </mxCell>
        <mxCell id="Y2Szfp4RK3KfRqV7q5DK-47" value="&amp;nbsp;stuck User รับค่า Duration&amp;nbsp;" style="shape=parallelogram;perimeter=parallelogramPerimeter;whiteSpace=wrap;html=1;fixedSize=1;" vertex="1" parent="1">
          <mxGeometry x="-772.5" y="-417.5" width="235" height="40" as="geometry" />
        </mxCell>
        <mxCell id="Y2Szfp4RK3KfRqV7q5DK-51" value="" style="edgeStyle=orthogonalEdgeStyle;rounded=0;orthogonalLoop=1;jettySize=auto;html=1;" edge="1" parent="1">
          <mxGeometry relative="1" as="geometry">
            <mxPoint x="-655" y="-757.5" as="sourcePoint" />
            <mxPoint x="-655" y="-722.5" as="targetPoint" />
          </mxGeometry>
        </mxCell>
        <mxCell id="Y2Szfp4RK3KfRqV7q5DK-61" value="" style="edgeStyle=orthogonalEdgeStyle;rounded=0;orthogonalLoop=1;jettySize=auto;html=1;" edge="1" parent="1" source="Y2Szfp4RK3KfRqV7q5DK-49" target="Y2Szfp4RK3KfRqV7q5DK-57">
          <mxGeometry relative="1" as="geometry" />
        </mxCell>
        <mxCell id="Y2Szfp4RK3KfRqV7q5DK-49" value="กำหนดตัวแปร Average" style="rounded=0;whiteSpace=wrap;html=1;" vertex="1" parent="1">
          <mxGeometry x="-720" y="-905" width="130" height="50" as="geometry" />
        </mxCell>
        <mxCell id="Y2Szfp4RK3KfRqV7q5DK-63" value="" style="edgeStyle=orthogonalEdgeStyle;rounded=0;orthogonalLoop=1;jettySize=auto;html=1;" edge="1" parent="1" source="Y2Szfp4RK3KfRqV7q5DK-52" target="Y2Szfp4RK3KfRqV7q5DK-13">
          <mxGeometry relative="1" as="geometry" />
        </mxCell>
        <mxCell id="Y2Szfp4RK3KfRqV7q5DK-52" value="เพิ่ม count 1 รอบ" style="rounded=0;whiteSpace=wrap;html=1;" vertex="1" parent="1">
          <mxGeometry x="-720" y="-342.5" width="130" height="50" as="geometry" />
        </mxCell>
        <mxCell id="Y2Szfp4RK3KfRqV7q5DK-57" value="กำหนดตัวแปร count" style="rounded=0;whiteSpace=wrap;html=1;" vertex="1" parent="1">
          <mxGeometry x="-720" y="-810" width="130" height="50" as="geometry" />
        </mxCell>
        <mxCell id="Y2Szfp4RK3KfRqV7q5DK-60" value="" style="edgeStyle=orthogonalEdgeStyle;rounded=0;orthogonalLoop=1;jettySize=auto;html=1;" edge="1" parent="1" source="Y2Szfp4RK3KfRqV7q5DK-58" target="Y2Szfp4RK3KfRqV7q5DK-49">
          <mxGeometry relative="1" as="geometry" />
        </mxCell>
        <mxCell id="Y2Szfp4RK3KfRqV7q5DK-58" value="กำหนดตัวแปร Payment" style="rounded=0;whiteSpace=wrap;html=1;" vertex="1" parent="1">
          <mxGeometry x="-720" y="-1000" width="130" height="50" as="geometry" />
        </mxCell>
        <mxCell id="Y2Szfp4RK3KfRqV7q5DK-67" value="" style="edgeStyle=orthogonalEdgeStyle;rounded=0;orthogonalLoop=1;jettySize=auto;html=1;" edge="1" parent="1" source="Y2Szfp4RK3KfRqV7q5DK-64" target="Y2Szfp4RK3KfRqV7q5DK-22">
          <mxGeometry relative="1" as="geometry" />
        </mxCell>
        <mxCell id="Y2Szfp4RK3KfRqV7q5DK-64" value="คำนวนหาผลรวม&lt;br&gt;&lt;div&gt;&lt;span style=&quot;background-color: initial;&quot;&gt;Payment&amp;nbsp;&lt;/span&gt;&lt;span style=&quot;background-color: initial;&quot;&gt;=&amp;nbsp;&lt;/span&gt;&lt;span style=&quot;background-color: initial;&quot;&gt;Payment&amp;nbsp; +&lt;/span&gt;&lt;span style=&quot;background-color: initial;&quot;&gt;Salary&lt;/span&gt;&lt;/div&gt;" style="rounded=0;whiteSpace=wrap;html=1;" vertex="1" parent="1">
          <mxGeometry x="-720" y="-175" width="130" height="50" as="geometry" />
        </mxCell>
        <mxCell id="Y2Szfp4RK3KfRqV7q5DK-83" value="" style="edgeStyle=orthogonalEdgeStyle;rounded=0;orthogonalLoop=1;jettySize=auto;html=1;" edge="1" parent="1" source="Y2Szfp4RK3KfRqV7q5DK-70">
          <mxGeometry relative="1" as="geometry">
            <mxPoint x="-655" y="115" as="targetPoint" />
          </mxGeometry>
        </mxCell>
        <mxCell id="Y2Szfp4RK3KfRqV7q5DK-70" value="decimal" style="shape=process;whiteSpace=wrap;html=1;backgroundOutline=1;" vertex="1" parent="1">
          <mxGeometry x="-715" y="15" width="120" height="50" as="geometry" />
        </mxCell>
        <mxCell id="Y2Szfp4RK3KfRqV7q5DK-71" value="&lt;font data-font-src=&quot;https://fonts.googleapis.com/css?family=Sarabun&quot; face=&quot;Sarabun&quot;&gt;End&lt;/font&gt;" style="ellipse;whiteSpace=wrap;html=1;" vertex="1" parent="1">
          <mxGeometry x="-720.0000000000001" y="495" width="130" height="30" as="geometry" />
        </mxCell>
        <mxCell id="Y2Szfp4RK3KfRqV7q5DK-91" value="" style="edgeStyle=orthogonalEdgeStyle;rounded=0;orthogonalLoop=1;jettySize=auto;html=1;" edge="1" source="Y2Szfp4RK3KfRqV7q5DK-92" target="Y2Szfp4RK3KfRqV7q5DK-94" parent="1">
          <mxGeometry relative="1" as="geometry" />
        </mxCell>
        <mxCell id="Y2Szfp4RK3KfRqV7q5DK-92" value="Start Most duration" style="shape=process;whiteSpace=wrap;html=1;backgroundOutline=1;" vertex="1" parent="1">
          <mxGeometry x="-165" y="-1045" width="120" height="50" as="geometry" />
        </mxCell>
        <mxCell id="Y2Szfp4RK3KfRqV7q5DK-93" value="" style="edgeStyle=orthogonalEdgeStyle;rounded=0;orthogonalLoop=1;jettySize=auto;html=1;" edge="1" source="Y2Szfp4RK3KfRqV7q5DK-94" target="Y2Szfp4RK3KfRqV7q5DK-95" parent="1">
          <mxGeometry relative="1" as="geometry" />
        </mxCell>
        <mxCell id="Y2Szfp4RK3KfRqV7q5DK-94" value="หาคนที่อายุเยอที่สุด" style="rounded=0;whiteSpace=wrap;html=1;" vertex="1" parent="1">
          <mxGeometry x="-170" y="-960" width="130" height="50" as="geometry" />
        </mxCell>
        <mxCell id="Y2Szfp4RK3KfRqV7q5DK-95" value="&amp;nbsp;End Most duration" style="shape=process;whiteSpace=wrap;html=1;backgroundOutline=1;" vertex="1" parent="1">
          <mxGeometry x="-165" y="-865" width="120" height="50" as="geometry" />
        </mxCell>
        <mxCell id="Y2Szfp4RK3KfRqV7q5DK-100" value="" style="edgeStyle=orthogonalEdgeStyle;rounded=0;orthogonalLoop=1;jettySize=auto;html=1;" edge="1" parent="1" source="Y2Szfp4RK3KfRqV7q5DK-96" target="Y2Szfp4RK3KfRqV7q5DK-98">
          <mxGeometry relative="1" as="geometry" />
        </mxCell>
        <mxCell id="Y2Szfp4RK3KfRqV7q5DK-96" value="Most duration" style="shape=process;whiteSpace=wrap;html=1;backgroundOutline=1;" vertex="1" parent="1">
          <mxGeometry x="-715" y="115" width="120" height="50" as="geometry" />
        </mxCell>
        <mxCell id="Y2Szfp4RK3KfRqV7q5DK-102" value="" style="edgeStyle=orthogonalEdgeStyle;rounded=0;orthogonalLoop=1;jettySize=auto;html=1;" edge="1" parent="1" source="Y2Szfp4RK3KfRqV7q5DK-97" target="Y2Szfp4RK3KfRqV7q5DK-99">
          <mxGeometry relative="1" as="geometry" />
        </mxCell>
        <mxCell id="Y2Szfp4RK3KfRqV7q5DK-97" value="ปริ้นค่า Payment&amp;nbsp;" style="shape=parallelogram;perimeter=parallelogramPerimeter;whiteSpace=wrap;html=1;fixedSize=1;" vertex="1" parent="1">
          <mxGeometry x="-772.5" y="305" width="235" height="40" as="geometry" />
        </mxCell>
        <mxCell id="Y2Szfp4RK3KfRqV7q5DK-101" value="" style="edgeStyle=orthogonalEdgeStyle;rounded=0;orthogonalLoop=1;jettySize=auto;html=1;" edge="1" parent="1" source="Y2Szfp4RK3KfRqV7q5DK-98" target="Y2Szfp4RK3KfRqV7q5DK-97">
          <mxGeometry relative="1" as="geometry" />
        </mxCell>
        <mxCell id="Y2Szfp4RK3KfRqV7q5DK-98" value="ปริ้นค่า Average&amp;nbsp;" style="shape=parallelogram;perimeter=parallelogramPerimeter;whiteSpace=wrap;html=1;fixedSize=1;" vertex="1" parent="1">
          <mxGeometry x="-772.5" y="215" width="235" height="40" as="geometry" />
        </mxCell>
        <mxCell id="Y2Szfp4RK3KfRqV7q5DK-103" value="" style="edgeStyle=orthogonalEdgeStyle;rounded=0;orthogonalLoop=1;jettySize=auto;html=1;" edge="1" parent="1" source="Y2Szfp4RK3KfRqV7q5DK-99" target="Y2Szfp4RK3KfRqV7q5DK-71">
          <mxGeometry relative="1" as="geometry" />
        </mxCell>
        <mxCell id="Y2Szfp4RK3KfRqV7q5DK-99" value="ปริ้นชื่อ คนที่อายุมากที่สุด" style="shape=parallelogram;perimeter=parallelogramPerimeter;whiteSpace=wrap;html=1;fixedSize=1;" vertex="1" parent="1">
          <mxGeometry x="-772.5" y="395" width="235" height="40" as="geometry" />
        </mxCell>
      </root>
    </mxGraphModel>
  </diagram>
</mxfile>
